<?xml version="1.0" encoding="iso-8859-1"?>
<!-- Uploaded to: SVG Repo, www.svgrepo.com, Generator: SVG Repo Mixer Tools -->
<svg fill="#000000" height="800px" width="800px" version="1.1" id="Layer_1" xmlns="http://www.w3.org/2000/svg" xmlns:xlink="http://www.w3.org/1999/xlink" 
	 viewBox="0 0 512 512" xml:space="preserve">
<g>
	<g>
		<path d="M503.551,433.614c-9.492,0-13.77-2.103-19.186-4.765c-6.196-3.047-13.22-6.5-26.642-6.5
			c-13.429,0-20.455,3.453-26.653,6.5c-5.417,2.662-9.694,4.765-19.186,4.765c-9.494,0-13.771-2.103-19.186-4.766
			c-6.195-3.046-13.216-6.499-26.631-6.499c-13.422,0-20.445,3.453-26.642,6.5c-5.417,2.663-9.694,4.765-19.186,4.765
			c-9.503,0-13.774-2.102-19.184-4.764c-4.186-2.059-9.25-0.336-11.312,3.851c-2.059,4.186-0.337,9.25,3.851,11.311
			c6.193,3.047,13.21,6.501,26.645,6.501c13.422,0,20.445-3.453,26.642-6.5c5.417-2.663,9.694-4.765,19.186-4.765
			c9.484,0,13.761,2.102,19.174,4.764c6.197,3.047,13.22,6.501,26.644,6.501c13.42,0,20.444-3.452,26.64-6.498
			c5.42-2.663,9.7-4.768,19.199-4.768c9.492,0,13.77,2.103,19.186,4.765c6.196,3.047,13.22,6.5,26.642,6.5
			c4.666,0,8.449-3.783,8.449-8.449S508.217,433.614,503.551,433.614z"/>
	</g>
</g>
<g>
	<g>
		<path d="M405.901,35.015c-35.873,0-65.057,29.183-65.057,65.055c0.001,35.872,29.185,65.057,65.057,65.057
			c35.872,0,65.057-29.184,65.057-65.057C470.957,64.198,441.774,35.015,405.901,35.015z M405.901,148.228
			c-26.555,0-48.158-21.603-48.158-48.158c0.001-26.554,21.604-48.157,48.158-48.157s48.158,21.603,48.158,48.157
			S432.456,148.228,405.901,148.228z"/>
	</g>
</g>
<g>
	<g>
		<path d="M503.55,460.087H8.452c-4.666,0-8.449,3.783-8.449,8.449s3.783,8.449,8.449,8.449H503.55c4.666,0,8.449-3.783,8.449-8.449
			S508.216,460.087,503.55,460.087z"/>
	</g>
</g>
<g>
	<g>
		<path d="M267.649,427.981h-32.488l-4.579-12.392h23.91c4.666,0,8.449-3.783,8.449-8.449s-3.783-8.449-8.449-8.449h-30.155
			l-6.982-18.893c-1.226-3.317-4.389-5.52-7.925-5.52h-50.695c-3.537,0-6.7,2.204-7.925,5.52l-6.982,18.893h-12.312L105.88,363.14
			c-2.729-3.784-8.011-4.641-11.795-1.912c-3.785,2.73-4.64,8.01-1.912,11.795l28.164,39.058c1.589,2.202,4.138,3.507,6.853,3.507
			h10.391l-4.579,12.392H61.555l47.687-147.451l87.314,28.366c0.851,0.277,1.733,0.413,2.61,0.413c1.321,0,2.637-0.31,3.836-0.92
			c1.996-1.017,3.507-2.787,4.2-4.917c8.972-27.618,6.652-57.076-6.532-82.949c-11.896-23.345-31.37-41.221-55.347-51.087
			l6.201-19.087c1.442-4.438-0.987-9.204-5.424-10.646c-4.438-1.443-9.205,0.987-10.646,5.424l-6.192,19.059
			c-25.198-6.11-51.466-3.064-74.813,8.833c-25.873,13.185-45.062,35.656-54.034,63.273c-1.442,4.439,0.987,9.205,5.424,10.647
			l87.33,28.371L43.795,427.981H8.452c-4.666,0-8.449,3.783-8.449,8.449c0,4.666,3.783,8.449,8.449,8.449h259.198
			c4.666,0,8.449-3.783,8.449-8.449C276.098,431.764,272.316,427.981,267.649,427.981z M163.749,211.237
			c-0.453-4.519-1.149-8.748-2.078-12.67c9.847,7.983,18.016,17.996,23.944,29.628c9.846,19.323,12.518,41.012,7.765,61.902
			l-37.179-12.078C163.021,254.197,165.705,230.751,163.749,211.237z M19.459,233.596c8.432-19.695,23.341-35.673,42.663-45.519
			c11.633-5.928,24.126-9.228,36.784-9.9c-3.056,2.627-6.106,5.64-9.127,9.029c-13.051,14.64-24.659,35.186-33.141,58.467
			L19.459,233.596z M72.715,250.896c7.73-21.063,18.116-39.476,29.679-52.445c11.066-12.415,22.204-18.355,29.783-15.891
			c7.582,2.463,13.1,13.813,14.758,30.361c1.733,17.289-0.686,38.291-6.81,59.874L72.715,250.896z M164.62,391.177h38.925
			l2.777,7.514h-44.479L164.62,391.177z M151.018,427.981l4.579-12.392h56.969l4.58,12.392H151.018z"/>
	</g>
</g>
<g>
	<g>
		<path d="M481.584,194.401c-12.303,0-23.289,5.747-30.416,14.696c-7.127-8.949-18.113-14.696-30.416-14.696
			c-4.666,0-8.449,3.783-8.449,8.449c0,4.666,3.783,8.449,8.449,8.449c12.112,0,21.967,9.854,21.967,21.967
			c0,4.666,3.783,8.449,8.449,8.449s8.449-3.783,8.449-8.449c0-12.112,9.854-21.967,21.967-21.967c4.666,0,8.449-3.783,8.449-8.449
			S486.25,194.401,481.584,194.401z"/>
	</g>
</g>
</svg>