<?xml version="1.0" encoding="UTF-8" standalone="no"?>
<!-- Created with Inkscape (http://www.inkscape.org/) -->

<svg
   version="1.1"
   id="svg2"
   width="2666.6667"
   height="2666.6667"
   viewBox="0 0 2666.6667 2666.6667"
   sodipodi:docname="beach.eps"
   xmlns:inkscape="http://www.inkscape.org/namespaces/inkscape"
   xmlns:sodipodi="http://sodipodi.sourceforge.net/DTD/sodipodi-0.dtd"
   xmlns="http://www.w3.org/2000/svg"
   xmlns:svg="http://www.w3.org/2000/svg">
  <defs
     id="defs6" />
  <sodipodi:namedview
     id="namedview4"
     pagecolor="#ffffff"
     bordercolor="#000000"
     borderopacity="0.25"
     inkscape:showpageshadow="2"
     inkscape:pageopacity="0.0"
     inkscape:pagecheckerboard="0"
     inkscape:deskcolor="#d1d1d1" />
  <g
     id="g8"
     inkscape:groupmode="layer"
     inkscape:label="ink_ext_XXXXXX"
     transform="matrix(1.3333333,0,0,-1.3333333,0,2666.6667)">
    <g
       id="g10"
       transform="scale(0.1)">
      <path
         d="M 20000,0 H 0 V 20000 H 20000 V 0"
         style="fill:#f6f6f4;fill-opacity:1;fill-rule:nonzero;stroke:none"
         id="path12" />
      <path
         d="m 12973.8,5185.3 c -109.3,664.7 -685.5,1164.6 -1375.7,1164.6 -411.7,0 -800.5,-181.1 -1066.7,-496.8 -33.6,-39.8 -85.3,-59.8 -136.4,-53 -51.6,6.7 -96.1,39.2 -118.3,86.1 -268.7,567.8 -847.72,934.7 -1475.1,934.7 -663.2,0 -1254.83,-396.3 -1507.33,-1009.7 -30.31,-73.8 -112.28,-111.6 -188.06,-87.1 -113.29,36.6 -228.93,55.2 -343.56,55.2 -414.38,0 -793.06,-236.1 -982.23,-594 z m -4548.53,4900.9 c 2.51,-1.4 4.65,-3.3 7.16,-4.8 -518.85,1332.4 -1163.92,1731.6 -1389.38,1834.7 -145.31,-201.4 -501.17,-862.7 -272.6,-2285.9 153.58,272.8 411.81,486.4 737.04,574.5 311.83,84.3 637.65,42.2 917.78,-118.5 z m 1121.6,670.4 c 266.61,72.2 543.83,51.8 793.53,-56.1 -622.9,941.3 -1742.04,1473.7 -2889.82,1330.1 359.86,-255.3 884.22,-802.2 1308.59,-1949.9 143.05,320.7 423.08,577.2 787.7,675.9 z M 5206.9,10539.4 c -238.61,-415.8 -372.37,-872.1 -397.22,-1337.4 161.34,220.2 390.92,378.2 658.44,450.6 105.11,28.5 211.83,42.6 317.91,42.6 208.47,0 414.27,-54.4 599.81,-161 36.45,-20.9 70,-45.2 103.68,-69.3 -212.96,1206.4 -35.7,1943.8 146.37,2345.7 -600.03,-255.4 -1098.79,-696 -1428.99,-1271.2 z M 5051.95,5185.3 h 393.13 c 210.02,534.8 736.24,899.3 1317.57,899.3 101.85,0 203.98,-11.4 305.03,-33.9 235.08,475.3 648.87,824.3 1140.14,981.9 l -764.29,2824 C 7051.65,9675 6834.42,9232.1 6950.97,8801.4 c 3.58,-13.3 5.29,-26.7 5.29,-39.9 0,-67.3 -44.73,-128.9 -112.81,-147.3 -81.66,-21.8 -165.18,26.1 -187.2,107.5 -63.06,233 -213.07,427.6 -422.39,547.8 -209.22,120.1 -452.96,151.5 -686.01,88.4 -233.1,-63.1 -427.68,-213.1 -547.82,-422.4 -119.81,-208.9 -151.34,-451.9 -88.81,-684.6 0.16,-0.4 0.26,-1 0.43,-1.5 21.96,-81.3 -26.08,-165.1 -107.52,-187.2 -13.36,-3.6 -26.73,-5.3 -39.98,-5.3 -67.28,0 -128.84,44.7 -147.28,112.8 0,0 -0.16,0.7 -0.26,1.1 -231.51,856.3 -115.92,1751.5 325.55,2520.5 441.58,769.4 1156.6,1320.9 2013.35,1552.8 1768.33,478.2 3595.69,-570.7 4074.19,-2338.4 l 0.1,-0.3 c 22,-81.3 -26.2,-165.2 -107.5,-187.2 -81.6,-21.9 -165.2,26.1 -187.2,107.5 -63,233.1 -213.1,427.6 -422.4,547.7 -209.2,120.2 -452.62,151.6 -686.1,88.5 -480.91,-130.2 -766.38,-627.5 -636.2,-1108.5 3.58,-13.4 5.29,-26.8 5.29,-40 0,-67.2 -44.73,-128.9 -112.81,-147.2 -81.5,-22 -165.24,26.1 -187.25,107.5 -63.01,233 -213.02,427.6 -422.34,547.7 -164.49,94.5 -349.98,133.3 -535.1,115.3 L 8505.06,7103 c 97.1,15 196.07,23.2 296.54,23.2 672,0 1297.2,-354.4 1647.2,-918.8 312.2,286.8 720.5,447.8 1149.3,447.8 858.5,0 1571.2,-634.9 1683.5,-1469.9 h 343.4 c 84.4,0 152.7,-68.3 152.7,-152.6 0,-84.4 -68.3,-152.7 -152.7,-152.7 H 5051.95 c -84.32,0 -152.62,68.3 -152.62,152.7 0,84.3 68.3,152.6 152.62,152.6"
         style="fill:#363333;fill-opacity:1;fill-rule:nonzero;stroke:none"
         id="path14" />
      <path
         d="m 13466.8,12366.7 c -396.3,0 -717.5,321.2 -717.5,717.5 0,396.2 321.2,717.5 717.5,717.5 396.2,0 717.4,-321.3 717.4,-717.5 0,-396.3 -321.2,-717.5 -717.4,-717.5 z m 0,1725.1 c -556.5,0 -1007.7,-451.1 -1007.7,-1007.6 0,-556.5 451.2,-1007.7 1007.7,-1007.7 556.5,0 1007.6,451.2 1007.6,1007.7 0,556.5 -451.1,1007.6 -1007.6,1007.6"
         style="fill:#363333;fill-opacity:1;fill-rule:nonzero;stroke:none"
         id="path16" />
      <path
         d="m 13970.2,14296.3 c 14.1,-5.8 28.7,-8.6 43,-8.6 44.4,0 86.5,26.3 104.4,69.9 l 247.8,600 c 23.8,57.7 -3.7,123.7 -61.3,147.5 -57.7,23.8 -123.7,-3.7 -147.5,-61.3 l -247.7,-600.1 c -23.8,-57.6 3.7,-123.6 61.3,-147.4"
         style="fill:#363333;fill-opacity:1;fill-rule:nonzero;stroke:none"
         id="path18" />
      <path
         d="m 12818.1,14358.2 c 18,-43.4 60,-69.6 104.3,-69.6 14.4,0 29.1,2.8 43.3,8.7 57.5,23.9 84.8,90 60.9,147.5 l -249.2,599.5 c -23.9,57.6 -90,84.9 -147.5,60.9 -57.6,-23.9 -84.9,-90 -61,-147.5 l 249.2,-599.5"
         style="fill:#363333;fill-opacity:1;fill-rule:nonzero;stroke:none"
         id="path20" />
      <path
         d="m 11507.2,13774.1 600,-247.8 c 14.1,-5.8 28.7,-8.5 43.1,-8.5 44.3,0 86.4,26.3 104.4,69.8 23.8,57.7 -3.7,123.7 -61.3,147.5 l -600.1,247.7 c -57.6,23.8 -123.6,-3.7 -147.4,-61.3 -23.8,-57.6 3.6,-123.6 61.3,-147.4"
         style="fill:#363333;fill-opacity:1;fill-rule:nonzero;stroke:none"
         id="path22" />
      <path
         d="m 12253.7,12583.1 c -23.9,57.6 -90,84.8 -147.6,60.9 l -599.5,-249.1 c -57.5,-24 -84.8,-90 -60.9,-147.6 18.1,-43.4 60.1,-69.6 104.3,-69.6 14.5,0 29.1,2.8 43.3,8.7 l 599.5,249.1 c 57.6,23.9 84.8,90 60.9,147.6"
         style="fill:#363333;fill-opacity:1;fill-rule:nonzero;stroke:none"
         id="path24" />
      <path
         d="m 12963.3,11872.1 c -57.6,23.8 -123.6,-3.7 -147.4,-61.3 l -247.7,-600 c -23.8,-57.7 3.6,-123.7 61.3,-147.5 14,-5.8 28.6,-8.6 43,-8.6 44.3,0 86.4,26.3 104.4,69.9 l 247.7,600.1 c 23.8,57.6 -3.6,123.6 -61.3,147.4"
         style="fill:#363333;fill-opacity:1;fill-rule:nonzero;stroke:none"
         id="path26" />
      <path
         d="m 14115.4,11810.2 c -23.9,57.6 -90,84.9 -147.5,60.9 -57.6,-23.9 -84.9,-90 -61,-147.6 l 249.2,-599.4 c 18,-43.4 60,-69.6 104.3,-69.6 14.4,0 29.1,2.8 43.3,8.6 57.6,24 84.8,90.1 60.9,147.6 l -249.2,599.5"
         style="fill:#363333;fill-opacity:1;fill-rule:nonzero;stroke:none"
         id="path28" />
      <path
         d="m 15426.4,12394.3 -600.1,247.7 c -57.6,23.9 -123.6,-3.6 -147.4,-61.2 -23.8,-57.7 3.6,-123.7 61.2,-147.5 l 600.1,-247.7 c 14.1,-5.8 28.7,-8.6 43,-8.6 44.4,0 86.5,26.3 104.4,69.9 23.8,57.6 -3.6,123.6 -61.2,147.4"
         style="fill:#363333;fill-opacity:1;fill-rule:nonzero;stroke:none"
         id="path30" />
      <path
         d="m 14679.8,13585.3 c 18.1,-43.4 60.1,-69.6 104.3,-69.6 14.5,0 29.2,2.8 43.3,8.7 l 599.5,249.1 c 57.6,23.9 84.8,90 60.9,147.6 -23.9,57.6 -90,84.9 -147.6,60.9 l -599.4,-249.1 c -57.6,-24 -84.9,-90 -61,-147.6"
         style="fill:#363333;fill-opacity:1;fill-rule:nonzero;stroke:none"
         id="path32" />
      <path
         d="m 13469.6,14396.7 c 62.3,0 112.9,50.5 112.9,112.9 v 344.3 c 0,62.4 -50.6,112.9 -112.9,112.9 -62.4,0 -112.9,-50.5 -112.9,-112.9 v -344.3 c 0,-62.4 50.5,-112.9 112.9,-112.9"
         style="fill:#363333;fill-opacity:1;fill-rule:nonzero;stroke:none"
         id="path34" />
      <path
         d="m 12381,14014.3 c 22.1,-22.1 51,-33.1 79.9,-33.1 28.9,0 57.8,11 79.8,33.1 44.1,44 44.1,115.5 0,159.6 l -243.5,243.5 c -44.1,44.1 -115.6,44.1 -159.7,0 -44.1,-44.1 -44.1,-115.6 0,-159.6 l 243.5,-243.5"
         style="fill:#363333;fill-opacity:1;fill-rule:nonzero;stroke:none"
         id="path36" />
      <path
         d="M 12041.4,13199.9 H 11697 c -62.3,0 -112.9,-50.5 -112.9,-112.9 0,-62.3 50.6,-112.9 112.9,-112.9 h 344.4 c 62.3,0 112.9,50.6 112.9,112.9 0,62.4 -50.6,112.9 -112.9,112.9"
         style="fill:#363333;fill-opacity:1;fill-rule:nonzero;stroke:none"
         id="path38" />
      <path
         d="m 12536.7,12158.1 c -44.1,44.1 -115.6,44.1 -159.7,0 l -243.5,-243.5 c -44,-44.1 -44,-115.5 0,-159.6 22.1,-22.1 51,-33.1 79.9,-33.1 28.9,0 57.8,11 79.8,33.1 l 243.5,243.4 c 44.1,44.1 44.1,115.6 0,159.7"
         style="fill:#363333;fill-opacity:1;fill-rule:nonzero;stroke:none"
         id="path40" />
      <path
         d="m 13463.9,11771.7 c -62.3,0 -112.9,-50.5 -112.9,-112.9 v -344.4 c 0,-62.3 50.6,-112.8 112.9,-112.8 62.4,0 112.9,50.5 112.9,112.8 v 344.4 c 0,62.4 -50.5,112.9 -112.9,112.9"
         style="fill:#363333;fill-opacity:1;fill-rule:nonzero;stroke:none"
         id="path42" />
      <path
         d="m 14552.5,12154.1 c -44.1,44.1 -115.6,44.1 -159.7,0 -44,-44.1 -44,-115.6 0,-159.7 l 243.5,-243.4 c 22.1,-22.1 51,-33.1 79.9,-33.1 28.9,0 57.8,11 79.8,33.1 44.1,44.1 44.1,115.6 0,159.6 l -243.5,243.5"
         style="fill:#363333;fill-opacity:1;fill-rule:nonzero;stroke:none"
         id="path44" />
      <path
         d="m 14892.1,13194.3 c -62.3,0 -112.9,-50.6 -112.9,-112.9 0,-62.4 50.6,-112.9 112.9,-112.9 h 344.4 c 62.4,0 112.9,50.5 112.9,112.9 0,62.3 -50.5,112.9 -112.9,112.9 h -344.4"
         style="fill:#363333;fill-opacity:1;fill-rule:nonzero;stroke:none"
         id="path46" />
      <path
         d="m 14396.8,14010.3 c 22.1,-22.1 51,-33.1 79.9,-33.1 28.8,0 57.8,11 79.8,33.1 l 243.5,243.5 c 44.1,44 44.1,115.5 0,159.6 -44.1,44.1 -115.6,44.1 -159.7,0 l -243.5,-243.5 c -44.1,-44.1 -44.1,-115.5 0,-159.6"
         style="fill:#363333;fill-opacity:1;fill-rule:nonzero;stroke:none"
         id="path48" />
    </g>
  </g>
</svg>
