<?xml version="1.0" standalone="no"?>
<!DOCTYPE svg PUBLIC "-//W3C//DTD SVG 20010904//EN"
 "http://www.w3.org/TR/2001/REC-SVG-20010904/DTD/svg10.dtd">
<svg version="1.0" xmlns="http://www.w3.org/2000/svg"
 width="512.000000pt" height="512.000000pt" viewBox="0 0 512.000000 512.000000"
 preserveAspectRatio="xMidYMid meet">

<g transform="translate(0.000000,512.000000) scale(0.100000,-0.100000)"
fill="#000000" stroke="none">
<path d="M1885 4944 c-551 -303 -1837 -1034 -1858 -1055 l-27 -29 0 -230 c0
-126 4 -240 10 -254 20 -54 102 -76 155 -42 13 9 29 16 35 16 7 0 10 -470 10
-1490 l0 -1490 -44 0 c-67 0 -103 -10 -130 -36 -48 -48 -36 -127 24 -157 33
-16 169 -17 2517 -15 l2483 3 25 26 c56 56 34 147 -42 168 -21 6 -62 11 -90
11 l-53 0 0 1290 0 1291 28 -15 c49 -25 88 -28 122 -11 54 28 60 59 60 297 0
183 -3 218 -18 248 -15 31 -36 44 -202 121 l-185 86 -5 349 c-5 375 -6 378
-59 406 -35 19 -667 19 -702 0 -48 -26 -54 -47 -57 -213 l-4 -156 -951 444
c-524 245 -965 447 -982 449 -17 2 -43 -3 -60 -12z m1535 -892 l1475 -689 3
-91 c1 -51 1 -92 -2 -92 -3 0 -657 304 -1453 676 -796 372 -1464 681 -1484
686 -29 8 -44 6 -70 -8 -19 -9 -401 -223 -851 -475 -449 -253 -821 -459 -827
-459 -7 0 -11 29 -11 80 0 71 2 81 23 94 32 21 1711 965 1717 966 3 0 669
-310 1480 -688z m-111 -359 c751 -350 1372 -641 1379 -646 9 -7 12 -288 12
-1343 l0 -1334 -2145 0 -2145 0 2 1552 3 1552 760 428 c418 235 762 427 764
428 3 0 619 -287 1370 -637z m1181 316 c0 -127 -4 -229 -8 -227 -5 2 -95 43
-200 92 l-192 90 0 138 0 138 200 0 200 0 0 -231z"/>
<path d="M1940 4028 c-25 -13 -326 -180 -668 -373 -477 -268 -627 -356 -638
-377 -11 -22 -14 -108 -14 -467 l0 -441 29 -32 29 -33 857 0 857 0 29 33 29
32 0 725 0 724 -22 25 c-22 23 -364 188 -418 201 -16 4 -41 -2 -70 -17z m173
-250 c62 -28 118 -56 125 -61 9 -7 12 -141 12 -608 l0 -599 -305 0 -305 0 0
559 0 558 178 101 c97 55 178 101 180 101 1 1 53 -22 115 -51z m-683 -768 l0
-500 -305 0 -305 0 0 328 0 329 303 171 c166 94 303 171 305 171 1 1 2 -224 2
-499z"/>
<path d="M2716 3675 c-58 -30 -55 2 -56 -681 l0 -631 25 -25 c14 -14 39 -28
56 -32 41 -8 1627 -8 1668 0 17 4 42 18 56 32 l25 25 0 251 c0 204 -3 255 -15
272 -16 23 -1678 804 -1711 804 -10 0 -32 -7 -48 -15z m561 -441 l193 -89 0
-317 0 -318 -305 0 -305 0 0 460 0 459 113 -53 c61 -29 199 -93 304 -142z
m713 -332 l295 -138 3 -127 3 -127 -306 0 -305 0 0 265 c0 146 3 265 8 265 4
0 140 -62 302 -138z"/>
<path d="M675 2088 c-11 -6 -28 -20 -37 -32 -16 -19 -18 -73 -18 -721 0 -648
2 -702 18 -721 9 -12 27 -27 39 -33 15 -8 262 -11 858 -11 908 0 877 -2 903
55 9 19 12 201 12 711 0 743 1 727 -55 752 -36 16 -1690 17 -1720 0z m755
-753 l0 -565 -305 0 -305 0 0 565 0 565 305 0 305 0 0 -565z m820 0 l0 -565
-305 0 -305 0 0 565 0 565 305 0 305 0 0 -565z"/>
<path d="M2708 2084 c-15 -8 -32 -23 -38 -34 -14 -26 -14 -1404 0 -1431 27
-50 7 -49 905 -49 898 0 878 -1 905 49 6 13 10 258 10 716 0 458 -4 703 -10
716 -27 50 -7 49 -907 49 -720 -1 -842 -3 -865 -16z m762 -749 l0 -565 -305 0
-305 0 0 565 0 565 305 0 305 0 0 -565z m820 0 l0 -565 -305 0 -305 0 0 565 0
565 305 0 305 0 0 -565z"/>
</g>
</svg>
