<?xml version="1.0" standalone="no"?>
<!DOCTYPE svg PUBLIC "-//W3C//DTD SVG 20010904//EN"
 "http://www.w3.org/TR/2001/REC-SVG-20010904/DTD/svg10.dtd">
<svg version="1.0" xmlns="http://www.w3.org/2000/svg"
 width="512.000000pt" height="512.000000pt" viewBox="0 0 512.000000 512.000000"
 preserveAspectRatio="xMidYMid meet">

<g transform="translate(0.000000,512.000000) scale(0.100000,-0.100000)"
fill="#000000" stroke="none">
<path d="M1062 5084 c-41 -25 -50 -39 -157 -258 -62 -127 -145 -305 -183 -396
-86 -204 -192 -485 -192 -509 0 -34 39 -71 74 -71 44 0 67 28 101 125 82 234
224 565 353 825 58 117 82 156 97 158 18 2 36 -28 127 -215 198 -405 314 -697
434 -1091 l34 -113 -39 -132 c-121 -404 -169 -712 -158 -1021 6 -165 21 -259
61 -379 l23 -68 -41 -36 c-80 -68 -206 -125 -328 -147 l-38 -7 0 959 c0 951 0
958 -20 980 -30 32 -82 30 -109 -4 -21 -27 -21 -31 -21 -980 l0 -954 -32 6
c-86 14 -206 60 -274 106 -176 118 -277 298 -320 571 -22 137 -14 468 15 647
23 145 63 334 92 438 17 62 18 76 7 99 -16 34 -58 50 -95 37 -34 -11 -51 -56
-98 -269 -55 -241 -76 -407 -82 -635 -6 -216 2 -318 37 -468 84 -358 326 -602
663 -668 l87 -17 0 -273 0 -273 -93 -70 c-222 -168 -594 -492 -879 -768 -86
-82 -108 -109 -108 -131 1 -34 19 -58 54 -72 38 -14 4974 -14 5012 0 35 14 53
38 54 71 0 52 -209 340 -328 452 -57 53 -79 57 -116 25 -48 -43 -40 -73 45
-165 80 -88 179 -216 179 -232 0 -8 -106 -11 -347 -11 l-348 0 -164 171 c-90
93 -210 209 -267 256 -57 48 -104 90 -104 94 0 12 125 68 188 84 81 21 223 19
316 -5 43 -11 121 -40 173 -65 53 -25 101 -45 108 -45 29 0 65 41 65 74 0 46
-14 60 -105 105 -138 68 -233 93 -375 98 -161 7 -249 -13 -409 -93 l-113 -57
-57 31 c-186 102 -384 142 -582 117 l-55 -7 -74 62 c-103 86 -182 141 -273
190 l-78 42 3 141 3 141 70 12 c296 51 517 262 599 574 132 499 -16 1250 -421
2140 -98 215 -159 337 -189 377 -30 39 -101 68 -149 60 -83 -13 -98 -33 -214
-267 -60 -120 -144 -304 -187 -409 l-78 -190 -57 164 c-132 379 -401 990 -486
1104 -50 66 -154 81 -231 35z m1384 -788 c352 -725 538 -1394 521 -1881 -11
-297 -71 -478 -202 -608 -92 -91 -248 -167 -342 -167 l-23 0 0 725 0 726 -25
24 c-31 32 -69 32 -100 0 l-25 -24 0 -727 0 -726 -37 7 c-175 32 -338 157
-417 317 -112 227 -126 588 -40 1013 82 403 272 930 501 1390 62 124 71 137
86 128 5 -3 52 -92 103 -197z m-691 -2545 c97 -124 264 -222 428 -253 l67 -13
0 -114 0 -113 -27 6 c-16 3 -57 13 -93 21 -106 26 -365 31 -494 10 -128 -20
-268 -63 -342 -105 -28 -17 -54 -30 -58 -30 -3 0 -6 99 -6 219 l0 219 43 7
c136 21 317 96 397 164 19 17 37 30 40 31 3 0 23 -22 45 -49z m292 -606 c187
-30 362 -103 508 -212 118 -88 117 -84 41 -128 -170 -99 -455 -352 -618 -547
l-90 -108 -809 0 c-445 0 -809 3 -809 6 0 20 512 472 737 651 355 282 511 348
833 352 63 0 156 -6 207 -14z m1033 -375 c243 -32 522 -207 815 -511 l90 -94
-472 -3 c-259 -1 -687 -1 -950 0 l-478 3 145 145 c287 288 510 435 694 460 34
4 66 8 71 8 6 1 44 -3 85 -8z"/>
</g>
</svg>
