<?xml version='1.0' encoding='iso-8859-1'?>
<!-- Uploaded to: SVG Repo, www.svgrepo.com, Generator: SVG Repo Mixer Tools -->
<svg fill="#000000" height="800px" width="800px" version="1.1" xmlns="http://www.w3.org/2000/svg" viewBox="0 0 463 463" xmlns:xlink="http://www.w3.org/1999/xlink" enable-background="new 0 0 463 463">
  <g>
    <path d="m455.5,368h-64.5v-49.458c31.49-3.724 56-30.567 56-63.042 0-56.446-54.465-166.673-56.784-171.338-1.267-2.55-3.869-4.162-6.716-4.162s-5.449,1.612-6.716,4.162c-0.141,0.285-14.297,28.845-28.25,63.809-11.076,27.755-18.952,51.647-23.587,71.489l-89.771-50.496c-2.283-1.284-5.07-1.284-7.354,0l-52.822,29.712v-7.676h0.5c4.142,0 7.5-3.358 7.5-7.5s-3.358-7.5-7.5-7.5h-48c-4.142,0-7.5,3.358-7.5,7.5s3.358,7.5 7.5,7.5h0.5v34.114l-7.512,4.226c-1.601-6.619-3.462-13.455-5.545-20.119-10.355-33.121-21.949-49.221-35.443-49.221s-25.088,16.1-35.442,49.22c-7.448,23.822-12.058,49.837-12.058,60.28 0,20.654 17.36,37.826 40,40.978v57.522h-64.5c-4.142,0-7.5,3.358-7.5,7.5s3.358,7.5 7.5,7.5h448c4.142,0 7.5-3.358 7.5-7.5s-3.358-7.5-7.5-7.5zm-207.5-48h-0.5c-4.142,0-7.5,3.358-7.5,7.5s3.358,7.5 7.5,7.5h0.5v33h-33v-81h33v33zm15-40.5c0-4.142-3.358-7.5-7.5-7.5h-48c-4.142,0-7.5,3.358-7.5,7.5v88.5h-81v-75.481c3.914-5.11 6.556-11.018 7.55-17.38l104.95-59.034 89.46,50.321c0.363,2.082 0.826,4.129 1.387,6.137-0.878-0.361-1.839-0.563-2.848-0.563h-32c-4.142,0-7.5,3.358-7.5,7.5v56c0,4.142 3.358,7.5 7.5,7.5h32c4.142,0 7.5-3.358 7.5-7.5v-51.074c4.146,8.066 9.964,15.131 17,20.738v62.836h-81v-88.5zm49.001,16.5h-17v-9h17v9zm-17,15h17v17h-17v-17zm64,3.078c5.337,2.24 11.045,3.759 17,4.464v49.458h-17v-53.922zm24.5-209.135c14.718,31.684 48.5,108.944 48.5,150.557 0,24.193-17.806,44.302-41,47.918v-23.915c0-0.002 0-0.003 0-0.005v-20.891l21.803-21.803c2.929-2.929 2.929-7.678 0-10.606-2.929-2.929-7.678-2.929-10.606,0l-11.197,11.196v-13.894c0-4.142-3.358-7.5-7.5-7.5s-7.5,3.358-7.5,7.5v31.997c0,0.002 0,0.003 0,0.005v5.891l-11.197-11.197c-2.929-2.929-7.678-2.929-10.606,0-2.929,2.929-2.929,7.678 0,10.606l21.803,21.804v20.812c-23.194-3.616-41-23.725-41-47.918 0-41.613 33.782-118.873 48.5-150.557zm-240.5,86.057h17v16.114l-17,9.563v-25.677zm88.5-6.895l90.356,50.825c-0.8,4.954-1.341,9.581-1.623,13.878l-85.056-47.844c-2.283-1.284-5.071-1.284-7.354,0l-101.769,57.245c-0.534-4.012-1.285-8.591-2.234-13.534l107.68-60.57zm-184.5,85.395c0-7.938 4.05-32.379 11.374-55.804 9.925-31.744 18.615-38.696 21.126-38.696s11.201,6.952 21.126,38.696c7.324,23.425 11.374,47.866 11.374,55.804 0,12.507-10.685,23.011-25,25.78v-23.78c0-4.142-3.358-7.5-7.5-7.5s-7.5,3.358-7.5,7.5v23.78c-14.315-2.769-25-13.273-25-25.78zm40,40.978c6.134-0.854 11.881-2.735 17-5.438v62.96h-17v-57.522z"/>
    <path d="m175.5,272h-32c-4.142,0-7.5,3.358-7.5,7.5v56c0,4.142 3.358,7.5 7.5,7.5h32c4.142,0 7.5-3.358 7.5-7.5v-56c0-4.142-3.358-7.5-7.5-7.5zm-7.5,15v9h-17v-9h17zm-17,41v-17h17v17h-17z"/>
  </g>
</svg>