<svg fill="#000000" height="173px" width="173px" version="1.1" id="Capa_1" xmlns="http://www.w3.org/2000/svg" xmlns:xlink="http://www.w3.org/1999/xlink" viewBox="-36.18 -36.18 474.36 474.36" xml:space="preserve"><g id="SVGRepo_bgCarrier" stroke-width="0"></g><g id="SVGRepo_tracerCarrier" stroke-linecap="round" stroke-linejoin="round"></g><g id="SVGRepo_iconCarrier"> <g> <path d="M65,289.25h8.667h79h8.667c4.418,0,8-3.582,8-8c0-4.418-3.582-8-8-8h-0.667V184.5c0-4.418-3.582-8-8-8h-79 c-4.418,0-8,3.582-8,8v88.75H65c-4.418,0-8,3.582-8,8C57,285.668,60.582,289.25,65,289.25z M144.667,192.5v32.375h-63V192.5 H144.667z M81.667,240.875h63v32.375h-63V240.875z"></path> <path d="M231.32,275.596c-1.49-1.49-3.55-2.35-5.65-2.35c-2.11,0-4.17,0.86-5.66,2.35c-1.49,1.49-2.34,3.55-2.34,5.65 c0,2.11,0.85,4.17,2.34,5.66c1.49,1.49,3.55,2.34,5.66,2.34c2.1,0,4.16-0.85,5.65-2.34c1.49-1.49,2.35-3.55,2.35-5.66 C233.67,279.147,232.81,277.087,231.32,275.596z"></path> <path d="M394,369.167h-9V157.994l4.42,2.212c1.13,0.565,2.356,0.846,3.58,0.846c1.462,0,2.921-0.401,4.205-1.194 c2.359-1.458,3.795-4.033,3.795-6.806v-32.135c0-3.029-1.711-5.799-4.42-7.154L360.667,95.79V32.75c0-4.418-3.582-8-8-8H297.25 c-4.418,0-8,3.582-8,8v27.301l-84.67-42.372c-2.253-1.128-4.907-1.128-7.16,0l-192,96.083C2.711,115.118,1,117.887,1,120.917 v32.135c0,2.773,1.436,5.348,3.795,6.806c2.359,1.458,5.305,1.589,7.785,0.349l4.42-2.212v211.173H8c-4.418,0-8,3.582-8,8 s3.582,8,8,8h386c4.418,0,8-3.582,8-8S398.418,369.167,394,369.167z M209,192.5h88v176.667h-88V192.5z M313,320.75h56v48.417h-56 V320.75z M305.25,40.75h39.417v47.033L305.25,68.058V40.75z M17,125.859l184-92.08l184,92.08v14.243L204.58,49.814 c-2.253-1.128-4.907-1.128-7.16,0L17,140.102V125.859z M201,65.914l168,84.073V304.75h-56V184.5c0-4.418-3.582-8-8-8H201 c-4.418,0-8,3.582-8,8v120.25H33V149.986L201,65.914z M33,320.75h160v48.417H33V320.75z"></path> </g> </g></svg>