<svg width="23" height="22" viewBox="0 0 23 22" fill="none" xmlns="http://www.w3.org/2000/svg">
<g clip-path="url(#clip0_2067_388)">
<path d="M23 21.0538H0" stroke="#306CA3" stroke-width="1.92" stroke-miterlimit="10"/>
<path d="M22.04 9.71864L11.5 1.22223L0.959999 9.71864" stroke="#306CA3" stroke-width="1.92" stroke-miterlimit="10"/>
<path d="M5.51344 12.6708L4.18531 13.1151C4.00627 12.5878 3.62704 12.3241 3.04762 12.3241C2.42913 12.3241 2.11988 12.5243 2.11988 12.9247C2.11988 13.0842 2.17685 13.2193 2.29078 13.33C2.40797 13.4406 2.67001 13.5367 3.07691 13.618C3.75725 13.7548 4.2553 13.8931 4.57105 14.0331C4.88681 14.1731 5.15211 14.3993 5.36695 14.7118C5.58505 15.021 5.6941 15.3677 5.6941 15.7518C5.6941 16.354 5.46135 16.8749 4.99586 17.3143C4.53362 17.7538 3.84677 17.9735 2.93531 17.9735C2.25172 17.9735 1.66903 17.8189 1.18726 17.5096C0.708748 17.1971 0.392993 16.7349 0.239998 16.1229L1.68531 15.7958C1.84807 16.4175 2.30054 16.7284 3.04273 16.7284C3.40081 16.7284 3.66773 16.66 3.84351 16.5233C4.01929 16.3833 4.10719 16.2173 4.10719 16.0253C4.10719 15.83 4.02743 15.6786 3.86793 15.5712C3.70842 15.4637 3.40081 15.3628 2.94508 15.2684C2.09547 15.0927 1.49 14.8534 1.12867 14.5507C0.767342 14.2447 0.586678 13.7987 0.586678 13.2128C0.586678 12.6203 0.801521 12.1206 1.23121 11.7137C1.66415 11.3068 2.25009 11.1034 2.98902 11.1034C4.29762 11.1034 5.13909 11.6259 5.51344 12.6708ZM9.90797 11.2059L11.9929 17.871H10.3132L9.90797 16.4989H7.74976L7.32984 17.871H5.96265L8.09644 11.2059H9.90797ZM8.12574 15.2684H9.54176L8.83375 12.9296L8.12574 15.2684ZM14.2976 16.5526H16.949V17.871H12.7156V11.2059H14.2976V16.5526ZM22.5154 12.4755H19.3367V13.8427H21.8367V15.0975H19.3367V16.5526H22.5154V17.871H17.7498V11.2059H22.5154V12.4755Z" fill="#306CA3"/>
</g>
<defs>
<clipPath id="clip0_2067_388">
<rect width="23" height="22" fill="white"/>
</clipPath>
</defs>
</svg>
