<svg width="23" height="23" viewBox="0 0 23 23" fill="none" xmlns="http://www.w3.org/2000/svg">
<g clip-path="url(#clip0_2067_370)">
<path d="M23 21.36H0" stroke="#306CA3" stroke-width="1.92" stroke-miterlimit="10"/>
<path d="M22.04 9.86L11.5 1.24L0.959999 9.86" stroke="#306CA3" stroke-width="1.92" stroke-miterlimit="10"/>
<path d="M4.35383 18.1025C3.45539 18.1025 2.7604 17.7656 2.26887 17.0918C1.77733 16.418 1.53156 15.6025 1.53156 14.6455C1.53156 13.6722 1.78059 12.86 2.27863 12.209C2.77668 11.5579 3.48632 11.2324 4.40754 11.2324C5.33853 11.2324 6.04003 11.5807 6.51203 12.2773C6.98729 12.9707 7.22492 13.765 7.22492 14.6602C7.22492 15.627 6.98078 16.4424 6.4925 17.1064C6.00422 17.7705 5.29133 18.1025 4.35383 18.1025ZM4.39777 12.5068C3.57746 12.5068 3.1673 13.2262 3.1673 14.665C3.1673 16.1071 3.57746 16.8281 4.39777 16.8281C5.19204 16.8281 5.58918 16.1087 5.58918 14.6699C5.58918 13.2279 5.19204 12.5068 4.39777 12.5068ZM12.9866 12.6533H9.86652V14.1475H12.3323V15.3926H9.86652V18H8.24543V11.335H12.9866V12.6533ZM15.3499 11.335V18H13.7923V11.335H15.3499ZM21.2972 12.7998L19.9691 13.2441C19.79 12.7168 19.4108 12.4531 18.8314 12.4531C18.2129 12.4531 17.9036 12.6533 17.9036 13.0537C17.9036 13.2132 17.9606 13.3483 18.0745 13.459C18.1917 13.5697 18.4538 13.6657 18.8607 13.7471C19.541 13.8838 20.039 14.0221 20.3548 14.1621C20.6706 14.3021 20.9359 14.5283 21.1507 14.8408C21.3688 15.1501 21.4779 15.4967 21.4779 15.8809C21.4779 16.4831 21.2451 17.0039 20.7796 17.4434C20.3174 17.8828 19.6305 18.1025 18.7191 18.1025C18.0355 18.1025 17.4528 17.9479 16.971 17.6387C16.4925 17.3262 16.1767 16.8639 16.0238 16.252L17.4691 15.9248C17.6318 16.5465 18.0843 16.8574 18.8265 16.8574C19.1846 16.8574 19.4515 16.7891 19.6273 16.6523C19.803 16.5124 19.8909 16.3464 19.8909 16.1543C19.8909 15.959 19.8112 15.8076 19.6517 15.7002C19.4922 15.5928 19.1846 15.4919 18.7288 15.3975C17.8792 15.2217 17.2738 14.9824 16.9124 14.6797C16.5511 14.3737 16.3704 13.9277 16.3704 13.3418C16.3704 12.7493 16.5853 12.2497 17.015 11.8428C17.4479 11.4359 18.0338 11.2324 18.7728 11.2324C20.0814 11.2324 20.9228 11.7549 21.2972 12.7998Z" fill="#306CA3"/>
</g>
<defs>
<clipPath id="clip0_2067_370">
<rect width="23" height="22.32" fill="white"/>
</clipPath>
</defs>
</svg>
