<svg width="21" height="17" viewBox="0 0 21 17" fill="none" xmlns="http://www.w3.org/2000/svg">
<path d="M16.5 8H3V2.94444C3.00148 2.42922 3.1995 1.93554 3.55081 1.57121C3.90212 1.20689 4.37818 1.00154 4.875 1H16.125C16.6218 1.00154 17.0979 1.20689 17.4492 1.57121C17.8005 1.93554 17.9985 2.42922 18 2.94444V8H16.5Z" stroke="#717171" stroke-width="2" stroke-linecap="round" stroke-linejoin="round"/>
<path d="M1 16V10.9091C1.00229 10.1383 1.31099 9.39964 1.85868 8.85457C2.40637 8.3095 3.14853 8.00228 3.92308 8H17.0769C17.8515 8.00228 18.5936 8.3095 19.1413 8.85457C19.689 9.39964 19.9977 10.1383 20 10.9091V16" stroke="#717171" stroke-width="2" stroke-linecap="round" stroke-linejoin="round"/>
<path d="M1 16V15.5C1.00084 15.1025 1.1166 14.7217 1.32199 14.4406C1.52737 14.1596 1.8057 14.0012 2.09615 14H18.9038C19.1943 14.0012 19.4726 14.1596 19.678 14.4406C19.8834 14.7217 19.9992 15.1025 20 15.5V16" stroke="#717171" stroke-width="2" stroke-linecap="round" stroke-linejoin="round"/>
<path d="M4 8V7C4.00099 6.47002 4.14178 5.96218 4.39162 5.58743C4.64145 5.21267 4.98002 5.00148 5.33333 5H8.66667C9.01998 5.00148 9.35855 5.21267 9.60838 5.58743C9.85822 5.96218 9.99901 6.47002 10 7V8" stroke="#717171" stroke-width="2" stroke-linecap="round" stroke-linejoin="round"/>
<path d="M11 8V7C11.0012 6.47002 11.1654 5.96218 11.4569 5.58743C11.7484 5.21267 12.1434 5.00148 12.5556 5H16.4444C16.8566 5.00148 17.2516 5.21267 17.5431 5.58743C17.8346 5.96218 17.9988 6.47002 18 7V8" stroke="#717171" stroke-width="2" stroke-linecap="round" stroke-linejoin="round"/>
</svg>
