<?xml version="1.0" encoding="utf-8"?>

<!DOCTYPE svg PUBLIC "-//W3C//DTD SVG 1.1//EN" "http://www.w3.org/Graphics/SVG/1.1/DTD/svg11.dtd">
<!-- Uploaded to: SVG Repo, www.svgrepo.com, Generator: SVG Repo Mixer Tools -->
<svg height="800px" width="800px" version="1.1" id="_x32_" xmlns="http://www.w3.org/2000/svg" xmlns:xlink="http://www.w3.org/1999/xlink" 
	 viewBox="0 0 512 512"  xml:space="preserve">
<style type="text/css">
	.st0{fill:#000000;}
</style>
<g>
	<path class="st0" d="M403.854,409.684c-17.68-14.106-72.76-41.247-86.349-44.375c-13.562-3.154-29.98,9.962-34.501,26.248
		c-4.547,16.295-13.027,14.753-13.027,14.753s-32.67-12.003-92.429-71.534c-59.769-59.549-71.85-92.175-71.85-92.175
		s-1.595-8.48,14.692-13.089c16.252-4.564,29.314-21.035,26.125-34.598c-3.171-13.562-30.532-68.563-44.69-86.165
		c-14.192-17.601-41.606-8.524-47.633-4.135C48.13,108.987-15.581,149.49,3.58,224.072
		c19.186,74.592,60.346,134.264,105.579,179.348c45.242,45.066,105.062,85.998,179.715,104.904
		c74.644,18.915,114.919-44.944,119.274-51.006C412.51,451.273,421.481,423.816,403.854,409.684z"/>
	<path class="st0" d="M247.023,189.177c9.9,4.854,25.644,13.86,43.893,32.1c18.25,18.25,27.247,33.993,32.1,43.884
		c5.099,10.4,8.866,12.494,11.915,11.784c5.029-1.166,6.702-2.515,7.167-13.001c0.385-8.936-3.89-35.588-31.076-62.773
		c-27.186-27.186-53.846-31.452-62.764-31.067c-10.496,0.447-11.828,2.129-12.992,7.175
		C234.555,180.311,236.623,184.087,247.023,189.177z"/>
	<path class="st0" d="M262.95,84.247c-12.808-0.009-16.042,7.92-16.428,10.995c-0.788,6.212,3.794,11.249,13.308,13.974
		c10.881,3.11,53.986,16.935,90.099,53.048c36.122,36.113,49.956,79.226,53.057,90.107c2.716,9.506,7.744,14.08,13.964,13.3
		c3.092-0.369,11.012-3.61,10.995-16.418c0.009-10.137-6.186-63.22-53.986-111.038C326.17,90.423,273.06,84.237,262.95,84.247z"/>
	<path class="st0" d="M437.304,74.889C368.836,6.422,296.602,0.526,284.187,0.201c-15.157-0.385-21.167,6.414-21.158,13.387
		c-0.009,5.94,6.08,12.046,15.139,14.377c13.597,3.486,67.495,11.976,130.784,75.266c63.307,63.29,71.78,117.197,75.284,130.803
		c2.322,9.041,8.437,15.139,14.368,15.139c6.982,0,13.781-6.002,13.378-21.149C511.667,215.601,505.771,143.366,437.304,74.889z"/>
</g>
</svg>