<svg width="24" height="22" viewBox="0 0 24 22" fill="none" xmlns="http://www.w3.org/2000/svg">
<g clip-path="url(#clip0_2067_376)">
<path d="M23.31 21.0538H0.309998" stroke="#306CA3" stroke-width="1.92" stroke-miterlimit="10"/>
<path d="M22.35 9.71864L11.81 1.22223L1.27 9.71864" stroke="#306CA3" stroke-width="1.92" stroke-miterlimit="10"/>
<path d="M2.24121 15.2294V17.871H0.668945V11.2059H3.59863C4.139 11.2059 4.57194 11.2694 4.89746 11.3964C5.22624 11.5201 5.49805 11.7496 5.71289 12.0848C5.92773 12.4201 6.03516 12.7928 6.03516 13.203C6.03516 14.0038 5.64941 14.5783 4.87793 14.9266L6.1084 17.871H4.38477L3.35938 15.2294H2.24121ZM2.24121 12.3925V14.0917H3.19824C3.51074 14.0917 3.73698 14.0705 3.87695 14.0282C4.02018 13.9826 4.14714 13.885 4.25781 13.7352C4.36849 13.5822 4.42383 13.4081 4.42383 13.2128C4.42383 13.0272 4.36849 12.8612 4.25781 12.7147C4.14714 12.5682 4.02669 12.4787 3.89648 12.4462C3.76628 12.4104 3.52214 12.3925 3.16406 12.3925H2.24121ZM12.002 12.4755H8.82324V13.8427H11.3232V15.0975H8.82324V16.5526H12.002V17.871H7.23633V11.2059H12.002V12.4755ZM18.0762 11.2059V17.871H16.7432L14.1309 13.369C14.1341 13.483 14.1374 13.5578 14.1406 13.5936C14.1536 13.7076 14.1602 13.8036 14.1602 13.8817V17.871H12.9443V11.2059H14.6289L16.8994 15.1366C16.8799 14.9413 16.8701 14.7932 16.8701 14.6923V11.2059H18.0762ZM23.6328 11.2059V12.5243H21.9824V17.871H20.4004V12.5243H18.7402V11.2059H23.6328Z" fill="#306CA3"/>
</g>
<defs>
<clipPath id="clip0_2067_376">
<rect width="23.63" height="22" fill="white"/>
</clipPath>
</defs>
</svg>
