<svg width="22" height="22" viewBox="0 0 22 22" fill="none" xmlns="http://www.w3.org/2000/svg">
<path d="M11 1.375V20.625" stroke="#717171" stroke-width="2" stroke-linecap="round" stroke-linejoin="round"/>
<path d="M13.4801 3.4375C12.7316 3.88865 11.874 4.1264 11 4.125C10.126 4.1264 9.26835 3.88865 8.51984 3.4375" stroke="#717171" stroke-width="2" stroke-linecap="round" stroke-linejoin="round"/>
<path d="M8.51984 18.5625C9.2689 18.1126 10.1262 17.875 11 17.875C11.8738 17.875 12.7311 18.1126 13.4801 18.5625" stroke="#717171" stroke-width="2" stroke-linecap="round" stroke-linejoin="round"/>
<path d="M19.3355 6.1875L2.66449 15.8125" stroke="#717171" stroke-width="2" stroke-linecap="round" stroke-linejoin="round"/>
<path d="M18.7889 9.36719C18.0247 8.94333 17.3901 8.31952 16.9533 7.56258C16.5165 6.80565 16.2938 5.94412 16.3092 5.07031" stroke="#717171" stroke-width="2" stroke-linecap="round" stroke-linejoin="round"/>
<path d="M3.21106 12.6328C3.97534 13.0567 4.60989 13.6805 5.04671 14.4374C5.48354 15.1944 5.70619 16.0559 5.69079 16.9297" stroke="#717171" stroke-width="2" stroke-linecap="round" stroke-linejoin="round"/>
<path d="M2.66449 6.1875L19.3355 15.8125" stroke="#717171" stroke-width="2" stroke-linecap="round" stroke-linejoin="round"/>
<path d="M3.21106 9.36719C3.97534 8.94333 4.60989 8.31952 5.04671 7.56258C5.48354 6.80565 5.70619 5.94412 5.69079 5.07031" stroke="#717171" stroke-width="2" stroke-linecap="round" stroke-linejoin="round"/>
<path d="M18.7889 12.6328C18.0247 13.0567 17.3901 13.6805 16.9533 14.4374C16.5165 15.1944 16.2938 16.0559 16.3092 16.9297" stroke="#717171" stroke-width="2" stroke-linecap="round" stroke-linejoin="round"/>
</svg>
