<?xml version='1.0' encoding='iso-8859-1'?>
<!-- Uploaded to: SVG Repo, www.svgrepo.com, Generator: SVG Repo Mixer Tools -->
<svg fill="#000000" height="800px" width="800px" version="1.1" xmlns="http://www.w3.org/2000/svg" viewBox="0 0 463 463" xmlns:xlink="http://www.w3.org/1999/xlink" enable-background="new 0 0 463 463">
  <g>
    <path d="m450.858,191.216c1.349,1.063 2.989,1.609 4.643,1.609 1.114,0 2.233-0.248 3.273-0.752 2.585-1.254 4.226-3.875 4.226-6.748v-40c0-2.298-1.053-4.469-2.858-5.891l-122.099-96.199c-8.563-6.747-20.524-6.746-29.087,0l-45.956,36.208v-14.118c0-4.142-3.358-7.5-7.5-7.5h-32c-4.142,0-7.5,3.358-7.5,7.5v51.149l-29.142,22.96c-1.805,1.422-2.858,3.593-2.858,5.891v40c0,2.873 1.641,5.494 4.226,6.748 2.584,1.254 5.659,0.922 7.916-0.856l3.858-3.04v73.086l-69.957-55.117c-8.563-6.747-20.524-6.747-29.087,0l-98.098,77.288c-1.805,1.421-2.858,3.593-2.858,5.891v40c0,2.873 1.641,5.494 4.226,6.748 1.04,0.505 2.159,0.752 3.273,0.752 1.653,0 3.294-0.546 4.643-1.609l3.858-3.04v77.649h-8.5c-4.142,0-7.5,3.358-7.5,7.5s3.358,7.5 7.5,7.5h448c4.142,0 7.5-3.358 7.5-7.5s-3.358-7.5-7.5-7.5h-8.5v-221.649l3.858,3.04zm-219.858-118.391h17v18.437l-17,13.394v-31.831zm-32,76.139l119.24-93.946c3.097-2.44 7.424-2.44 10.521,0l119.239,93.946v20.903l-119.858-94.433c-1.361-1.073-3.001-1.609-4.642-1.609s-3.28,0.536-4.642,1.609l-119.858,94.433v-20.903zm-184,144l95.24-75.037c3.097-2.44 7.424-2.44 10.521,0l79.239,62.431v20.904l-79.858-62.919c-2.723-2.146-6.561-2.146-9.283,0l-95.859,75.525v-20.904zm16,27.394l84.5-66.575 84.5,66.576v89.467h-33v-88.5c0-4.142-3.358-7.5-7.5-7.5h-88c-4.142,0-7.5,3.358-7.5,7.5v88.5h-33v-89.468zm48,40.467h73v17h-73v-17zm73-15h-73v-17h73v17zm-73,47h73v17h-73v-17zm217-38.975c-0.166-0.011-0.333-0.025-0.5-0.025-1.97,0-3.91,0.8-5.3,2.2-1.4,1.39-2.2,3.33-2.2,5.3 0,1.97 0.8,3.91 2.2,5.3 1.39,1.4 3.33,2.2 5.3,2.2 0.167,0 0.334-0.014 0.5-0.025v41.025h-33v-97h33v41.025zm136,55.975h-121v-104.5c0-4.142-3.358-7.5-7.5-7.5h-48c-4.142,0-7.5,3.358-7.5,7.5v104.5h-33v-233.467l108.5-85.485 108.5,85.485v233.467z"/>
    <path d="m343.5,376.825h48c4.142,0 7.5-3.358 7.5-7.5v-64c0-4.142-3.358-7.5-7.5-7.5h-48c-4.142,0-7.5,3.358-7.5,7.5v64c0,4.142 3.358,7.5 7.5,7.5zm7.5-15v-25h33v25h-33zm33-49v9h-33v-9h33z"/>
    <path d="m343.5,264.825h48c4.142,0 7.5-3.358 7.5-7.5v-64c0-4.142-3.358-7.5-7.5-7.5h-48c-4.142,0-7.5,3.358-7.5,7.5v64c0,4.142 3.358,7.5 7.5,7.5zm7.5-15v-25h33v25h-33zm33-49v9h-33v-9h33z"/>
    <path d="m303.5,185.825h-48c-4.142,0-7.5,3.358-7.5,7.5v64c0,4.142 3.358,7.5 7.5,7.5h48c4.142,0 7.5-3.358 7.5-7.5v-64c0-4.142-3.358-7.5-7.5-7.5zm-7.5,15v9h-33v-9h33zm-33,49v-25h33v25h-33z"/>
  </g>
</svg>