<?xml version="1.0" encoding="iso-8859-1"?>
<!-- Uploaded to: SVG Repo, www.svgrepo.com, Generator: SVG Repo Mixer Tools -->
<svg fill="#000000" height="800px" width="800px" version="1.1" id="Capa_1" xmlns="http://www.w3.org/2000/svg" xmlns:xlink="http://www.w3.org/1999/xlink" 
	 viewBox="0 0 59.786 59.786" xml:space="preserve">
<g>
	<path d="M59.647,54.616l-14.619-27.91l0,0l-8.102-15.468L22.499,38.78l-1.878-2.272c-1.132-1.371-2.794-2.098-4.576-2.001
		c-1.775,0.1-3.352,1.012-4.323,2.502L0.179,54.707c-0.22,0.335-0.239,0.762-0.049,1.114l0.361,0.572h12.781h2.258h43.041
		c0.429,0,0.817-0.219,1.039-0.586C59.832,55.441,59.845,54.995,59.647,54.616z M36.925,15.549l5.648,10.782l-1.648,1.648l-2-2l-2,2
		l-2-2l-2,2l-1.648-1.648L36.925,15.549z M2.772,54.393L13.397,38.1c0.621-0.951,1.626-1.533,2.76-1.597
		c1.134-0.063,2.199,0.402,2.922,1.277l2.413,2.921l-2.084,3.979l-5.087,9.712H2.772z M29.925,54.393v-3.356
		c1.651,2.044,4.174,3.356,7,3.356s5.349-1.312,7-3.356v3.356h-7H29.925z M52.925,54.393h-7v-3.356
		C47.577,53.081,50.099,54.393,52.925,54.393c0.552,0,1-0.447,1-1s-0.448-1-1-1c-3.531,0-6.451-2.63-6.925-6.032
		c1.266,1.255,3.006,2.032,4.925,2.032c0.552,0,1-0.447,1-1s-0.448-1-1-1c-2.757,0-5-2.243-5-5v-0.026
		c0.838,0.635,1.87,1.026,3,1.026c0.552,0,1-0.447,1-1s-0.448-1-1-1c-1.654,0-3-1.346-3-3c0-0.553-0.448-1-1-1s-1,0.447-1,1
		c0,1.654-1.346,3-3,3c-0.552,0-1,0.447-1,1s0.448,1,1,1c1.13,0,2.162-0.391,3-1.026v0.026c0,2.757-2.243,5-5,5
		c-0.552,0-1,0.447-1,1s0.448,1,1,1c1.919,0,3.659-0.777,4.925-2.032c-0.474,3.402-3.394,6.032-6.925,6.032s-6.451-2.63-6.925-6.032
		c1.266,1.255,3.006,2.032,4.925,2.032c0.552,0,1-0.447,1-1s-0.448-1-1-1c-2.757,0-5-2.243-5-5v-0.026
		c0.838,0.635,1.87,1.026,3,1.026c0.552,0,1-0.447,1-1s-0.448-1-1-1c-1.654,0-3-1.346-3-3c0-0.553-0.448-1-1-1s-1,0.447-1,1
		c0,1.654-1.346,3-3,3c-0.552,0-1,0.447-1,1s0.448,1,1,1c1.13,0,2.162-0.391,3-1.026v0.026c0,2.757-2.243,5-5,5
		c-0.552,0-1,0.447-1,1s0.448,1,1,1c1.919,0,3.659-0.777,4.925-2.032c-0.474,3.402-3.394,6.032-6.925,6.032c-0.552,0-1,0.447-1,1
		s0.448,1,1,1c2.826,0,5.349-1.312,7-3.356v3.356h-7h-4.347l13.727-26.206l2.62,2.62l2-2l2,2l2-2l2,2l2.62-2.62l13.727,26.206
		H52.925z"/>
	<path d="M12.925,19.393c4.411,0,8-3.589,8-8s-3.589-8-8-8s-8,3.589-8,8S8.514,19.393,12.925,19.393z M12.925,5.393
		c3.309,0,6,2.691,6,6s-2.691,6-6,6s-6-2.691-6-6S9.617,5.393,12.925,5.393z"/>
	<path d="M45.925,14.393c2.426,0,4.4,1.974,4.4,4.4c0,0.553,0.448,1,1,1s1-0.447,1-1c0-1.434,1.167-2.601,2.6-2.601
		c0.552,0,1-0.447,1-1s-0.448-1-1-1c-1.348,0-2.551,0.593-3.393,1.521c-1.09-1.977-3.194-3.32-5.607-3.32c-0.552,0-1,0.447-1,1
		S45.373,14.393,45.925,14.393z"/>
</g>
</svg>