<svg width="12" height="12" viewBox="0 0 12 12" fill="none" xmlns="http://www.w3.org/2000/svg">
<path d="M11.7825 5.8275C10.8675 3.435 8.5575 1.86 6 1.8825C3.42 1.83 1.095 3.4125 0.21 5.835C0.18 5.9475 0.18 6.06 0.21 6.165C1.1025 8.58 3.4275 10.1625 6 10.1175C8.565 10.14 10.8675 8.565 11.79 6.1725C11.82 6.06 11.82 5.94 11.7825 5.8275ZM6 9.0075C3.975 9.0825 2.115 7.875 1.35 6C2.1075 4.1175 3.9675 2.9175 6 2.9925C8.0175 2.9475 9.8625 4.14 10.6425 6C9.855 7.86 8.0175 9.0525 6 9.0075ZM6 4.0125C5.865 4.0125 5.73 4.0275 5.6025 4.0575C5.7975 4.32 5.9025 4.635 5.9025 4.965C5.865 5.9025 5.0775 6.6225 4.14 6.585C4.1325 6.585 4.1175 6.585 4.11 6.585H4.0575C4.3725 7.6425 5.4825 8.2425 6.54 7.9275C7.5975 7.6125 8.1975 6.5025 7.8825 5.445C7.635 4.5975 6.87 4.02 6 4.0125Z" fill="black"/>
</svg>
