<svg width="16" height="16" viewBox="0 0 16 16" fill="none" xmlns="http://www.w3.org/2000/svg">
<path fill-rule="evenodd" clip-rule="evenodd" d="M2.66667 3.33333H3.44714C3.72169 2.55654 4.46252 2 5.33333 2C6.20415 2 6.945 2.55654 7.21953 3.33333H13.3333C13.7015 3.33333 14 3.63181 14 4C14 4.36819 13.7015 4.66667 13.3333 4.66667H7.21953C6.945 5.44346 6.20415 6 5.33333 6C4.46252 6 3.72169 5.44346 3.44714 4.66667H2.66667C2.29848 4.66667 2 4.36819 2 4C2 3.63181 2.29848 3.33333 2.66667 3.33333ZM5.33333 4.66667C4.96515 4.66667 4.66667 4.36819 4.66667 4C4.66667 3.63181 4.96515 3.33333 5.33333 3.33333C5.70153 3.33333 6 3.63181 6 4C6 4.36819 5.70153 4.66667 5.33333 4.66667Z" fill="#FAFAFA"/>
<path fill-rule="evenodd" clip-rule="evenodd" d="M14 8C14 7.6318 13.7015 7.33333 13.3333 7.33333H12.5529C12.2783 6.55654 11.5375 6 10.6667 6C9.79587 6 9.055 6.55654 8.78047 7.33333H2.66667C2.29848 7.33333 2 7.6318 2 8C2 8.3682 2.29848 8.66667 2.66667 8.66667H8.78047C9.055 9.44347 9.79587 10 10.6667 10C11.5375 10 12.2783 9.44347 12.5529 8.66667H13.3333C13.7015 8.66667 14 8.3682 14 8ZM10.6667 8.66667C10.2985 8.66667 10 8.3682 10 8C10 7.6318 10.2985 7.33333 10.6667 7.33333C11.0349 7.33333 11.3333 7.6318 11.3333 8C11.3333 8.3682 11.0349 8.66667 10.6667 8.66667Z" fill="#FAFAFA"/>
<path fill-rule="evenodd" clip-rule="evenodd" d="M13.3333 11.3333C13.7015 11.3333 14 11.6318 14 12C14 12.3682 13.7015 12.6667 13.3333 12.6667H7.21953C6.945 13.4435 6.20415 14 5.33333 14C4.46252 14 3.72169 13.4435 3.44714 12.6667H2.66667C2.29848 12.6667 2 12.3682 2 12C2 11.6318 2.29848 11.3333 2.66667 11.3333H3.44714C3.72169 10.5565 4.46252 10 5.33333 10C6.20415 10 6.945 10.5565 7.21953 11.3333H13.3333ZM4.66667 12C4.66667 12.3682 4.96515 12.6667 5.33333 12.6667C5.70153 12.6667 6 12.3682 6 12C6 11.6318 5.70153 11.3333 5.33333 11.3333C4.96515 11.3333 4.66667 11.6318 4.66667 12Z" fill="#FAFAFA"/>
</svg>
