<svg width="21" height="21" viewBox="0 0 21 21" fill="none" xmlns="http://www.w3.org/2000/svg">
<path d="M15.4219 0.65625H5.57812C5.05616 0.656836 4.55574 0.864446 4.18666 1.23353C3.81757 1.60262 3.60996 2.10303 3.60938 2.625V19.0312C3.60977 19.3792 3.74817 19.7128 3.99423 19.9589C4.24029 20.205 4.5739 20.3434 4.92188 20.3438H16.0781C16.4261 20.3434 16.7597 20.205 17.0058 19.9589C17.2518 19.7128 17.3902 19.3792 17.3906 19.0312V2.625C17.39 2.10303 17.1824 1.60262 16.8133 1.23353C16.4443 0.864446 15.9438 0.656836 15.4219 0.65625ZM16.0781 19.0312H4.92188V9.84375H16.0781V19.0312ZM16.0781 8.53125H4.92188V2.625C4.92208 2.45101 4.99129 2.28421 5.11431 2.16119C5.23734 2.03816 5.40414 1.96896 5.57812 1.96875H15.4219C15.5959 1.96896 15.7627 2.03816 15.8857 2.16119C16.0087 2.28421 16.0779 2.45101 16.0781 2.625V8.53125Z" fill="#717171"/>
<path d="M7.21875 11.4844H5.90625V15.4219H7.21875V11.4844Z" fill="#717171"/>
<path d="M7.21875 4.26562H5.90625V6.89062H7.21875V4.26562Z" fill="#717171"/>
</svg>
