<?xml version="1.0" ?>
<!-- Uploaded to: SVG Repo, www.svgrepo.com, Generator: SVG Repo Mixer Tools -->
<svg fill="#000000" width="800px" height="800px" viewBox="0 0 32 32" xmlns="http://www.w3.org/2000/svg">
<title/>
<g id="Refrigeratot">
<path d="M20.71,2H9A1,1,0,0,0,8,3v7H24V5.29A3.3,3.3,0,0,0,20.71,2ZM22.5,9c-.28,0-.5-.67-.5-1.5s.22-1.5.5-1.5.5.67.5,1.5S22.78,9,22.5,9Z"/>
<line x1="10" x2="9.92" y1="29" y2="27"/>
<path d="M10,30a1,1,0,0,1-1-1l-.08-2a1,1,0,0,1,1-1,1,1,0,0,1,1,1L11,29a1,1,0,0,1-1,1Z"/>
<line x1="11" x2="10.92" y1="28" y2="26"/>
<path d="M11,29a1,1,0,0,1-1-1l-.08-2a1,1,0,0,1,1-1,1,1,0,0,1,1,1L12,28a1,1,0,0,1-1,1Z"/>
<line x1="21" x2="20.92" y1="28" y2="26"/>
<path d="M21,29a1,1,0,0,1-1-1l-.08-2a1,1,0,0,1,1-1,1,1,0,0,1,1,1L22,28a1,1,0,0,1-1,1Z"/>
<line x1="22" x2="21.92" y1="29" y2="27"/>
<path d="M22,30a1,1,0,0,1-1-1l-.08-2a1,1,0,0,1,1-1,1,1,0,0,1,1,1L23,29a1,1,0,0,1-1,1Z"/>
<path d="M8,12V27a1,1,0,0,0,1,1H23a1,1,0,0,0,1-1V12Zm10.5,6h-.79l.56.56a.51.51,0,0,1,0,.71.5.5,0,0,1-.36.14.49.49,0,0,1-.35-.14L17,18.71v.79a.5.5,0,0,1-1,0v-.79l-.56.56a.49.49,0,0,1-.35.14.5.5,0,0,1-.36-.14.51.51,0,0,1,0-.71l.56-.56H14.5a.5.5,0,0,1,0-1h.79l-.56-.56a.5.5,0,0,1,.71-.71l.56.56V15.5a.5.5,0,0,1,1,0v.79l.56-.56a.5.5,0,0,1,.71.71l-.56.56h.79a.5.5,0,0,1,0,1Zm4-2c-.28,0-.5-.67-.5-1.5s.22-1.5.5-1.5.5.67.5,1.5S22.78,16,22.5,16Z"/>
</g>
</svg>