<svg width="22" height="22" viewBox="0 0 22 22" fill="none" xmlns="http://www.w3.org/2000/svg">
<path d="M19.25 2.75H11C10.4937 2.75 10.0833 3.16041 10.0833 3.66667V5.5H19.25V2.75Z" fill="#717171"/>
<path d="M8.11486 13.3782C8.54198 13.1835 9.58593 13.3782 9.58593 13.3782L12.6229 14.0596C12.6229 14.0596 13.3822 14.303 14.094 14.303C14.8058 14.303 14.3803 15.2771 13.9042 15.6171C13.4281 15.9573 13.0817 15.9389 13.0817 15.9389L10.6299 15.9092C10.6299 15.9092 12.7653 16.2986 13.572 16.3473C13.9807 16.3719 14.6816 16.0843 15.465 15.7629C16.2281 15.4497 17.0695 15.1045 17.7954 14.9844C19.2664 14.741 19.5037 16.0552 19.0292 16.5419C18.5546 17.0287 14.7584 18.8782 14.094 19.1216C13.5738 19.3122 12.9444 19.2489 12.2343 19.1776C12.0377 19.1578 11.8348 19.1374 11.6264 19.1216C10.7972 19.0588 10.1635 18.8573 9.53615 18.6579C8.86373 18.4441 8.19874 18.2327 7.30815 18.1968C7.00941 18.1848 6.31004 18.2218 5.95831 18.2423V14.1813C6.56602 13.9651 7.79683 13.5232 8.11486 13.3782Z" fill="#717171"/>
<path d="M3.20833 13.292C2.9552 13.292 2.75 13.4972 2.75 13.7503V18.7899C2.75 19.043 2.9552 19.2482 3.20833 19.2482H4.58333C4.83647 19.2482 5.04167 19.043 5.04167 18.7899V13.7503C5.04167 13.4972 4.83647 13.292 4.58333 13.292H3.20833Z" fill="#717171"/>
<path d="M10.5416 6.41666C10.2885 6.41666 10.0833 6.62185 10.0833 6.87499C10.0833 7.12813 10.2885 7.33332 10.5416 7.33332H13.2916C13.5448 7.33332 13.75 7.12813 13.75 6.87499C13.75 6.62185 13.5448 6.41666 13.2916 6.41666H10.5416Z" fill="#717171"/>
<path d="M11.9166 8.3288C12.1698 8.3288 12.375 8.53399 12.375 8.78713V9.7038C12.375 9.95693 12.1698 10.1621 11.9166 10.1621C11.6635 10.1621 11.4583 9.95693 11.4583 9.7038V8.78713C11.4583 8.53399 11.6635 8.3288 11.9166 8.3288Z" fill="#717171"/>
<path d="M13.8056 8.38423C13.6266 8.20526 13.3364 8.20526 13.1574 8.38423C12.9784 8.56321 12.9784 8.85343 13.1574 9.03241L13.8056 9.68058C13.9846 9.85961 14.2748 9.85961 14.4538 9.68058C14.6328 9.50161 14.6328 9.21143 14.4538 9.03241L13.8056 8.38423Z" fill="#717171"/>
<path d="M9.30092 9.75926C9.12194 9.58028 9.12194 9.29006 9.30092 9.11108L9.9491 8.46291C10.1281 8.28393 10.4183 8.28393 10.5973 8.46291C10.7763 8.64189 10.7763 8.9321 10.5973 9.11108L9.9491 9.75926C9.77012 9.93824 9.4799 9.93824 9.30092 9.75926Z" fill="#717171"/>
<path d="M12.375 11.0788C12.375 10.8256 12.1698 10.6205 11.9166 10.6205C11.6635 10.6205 11.4583 10.8256 11.4583 11.0788V11.9955C11.4583 12.2486 11.6635 12.4538 11.9166 12.4538C12.1698 12.4538 12.375 12.2486 12.375 11.9955V11.0788Z" fill="#717171"/>
<path d="M14.7616 9.98842C14.9406 9.80944 15.2308 9.80944 15.4098 9.98842L16.058 10.6366C16.2369 10.8156 16.2369 11.1058 16.058 11.2848C15.879 11.4638 15.5888 11.4638 15.4098 11.2848L14.7616 10.6366C14.5826 10.4576 14.5826 10.1674 14.7616 9.98842Z" fill="#717171"/>
<path d="M7.69673 10.6006C7.51776 10.7796 7.51776 11.0698 7.69673 11.2488C7.87571 11.4278 8.16593 11.4278 8.34491 11.2488L8.99308 10.6006C9.17211 10.4217 9.17211 10.1315 8.99308 9.95247C8.81411 9.77349 8.52393 9.77349 8.34491 9.95247L7.69673 10.6006Z" fill="#717171"/>
</svg>
