<?xml version="1.0" encoding="utf-8"?><!-- Uploaded to: SVG Repo, www.svgrepo.com, Generator: SVG Repo Mixer Tools -->
<svg version="1.1" id="Uploaded to svgrepo.com" xmlns="http://www.w3.org/2000/svg" xmlns:xlink="http://www.w3.org/1999/xlink" 
	 width="800px" height="800px" viewBox="0 0 32 32" xml:space="preserve">
<style type="text/css">
	.stone_een{fill:#0B1719;}
</style>
<path class="stone_een" d="M22.434,16.5v-2c0-0.276,0.224-0.5,0.5-0.5s0.5,0.224,0.5,0.5v2c0,0.276-0.224,0.5-0.5,0.5
	S22.434,16.776,22.434,16.5z M26.934,17c0.276,0,0.5-0.224,0.5-0.5v-2c0-0.276-0.224-0.5-0.5-0.5s-0.5,0.224-0.5,0.5v2
	C26.434,16.776,26.658,17,26.934,17z M0.959,23.223C0.738,23.555,0.976,24,1.375,24h25.066c0.552,0,1-0.448,1-1v-1H1.774
	L0.959,23.223z M2.441,21l4.528-6.792c0.977-1.466,2.144-2.797,3.47-3.957l0.347-0.304C14.432,6.758,19.112,5,23.956,5h2.323
	c1.291,0,2.438,0.826,2.846,2.051l1.362,4.086c1.146,3.437,0.321,7.198-2.094,9.863H2.441z M16.226,11h8.611
	c0.325,0,0.621-0.151,0.811-0.415c0.19-0.264,0.24-0.592,0.137-0.901C25.65,9.275,25.268,9,24.837,9h-0.881
	C21.232,9,18.591,9.687,16.226,11z M5.262,18.223C5.04,18.555,5.278,19,5.678,19h3.739c2.71,0,5.41-0.361,8.025-1.074l3.248-0.887
	c0.261-0.071,0.526-0.128,0.79-0.187c0.167,0.692,0.81,1.199,1.566,1.144c0.794-0.058,1.388-0.761,1.388-1.558v-0.136
	c0.333-0.046,0.666-0.086,1-0.121v0.256c0,0.821,0.633,1.538,1.454,1.562c0.849,0.026,1.546-0.656,1.546-1.499
	c0,0,0.012-0.5,0.018-0.5h1.166c0.228,0,0.428-0.155,0.484-0.376C30.183,15.308,29.944,15,29.618,15h-1.166
	c-0.006,0-0.012,0.001-0.018,0.001v-0.438c0-0.821-0.633-1.538-1.454-1.562c-0.849-0.025-1.546,0.656-1.546,1.499v0.674
	c-0.334,0.033-0.667,0.072-1,0.116v-0.728c0-0.821-0.633-1.538-1.454-1.562c-0.849-0.025-1.546,0.656-1.546,1.499v1.335
	c-0.337,0.076-0.674,0.148-1.008,0.239l-3.248,0.887C14.649,17.65,12.037,18,9.416,18H5.678C5.51,18,5.354,18.084,5.262,18.223z"/>
</svg>