<svg width="17" height="16" viewBox="0 0 17 16" fill="none" xmlns="http://www.w3.org/2000/svg">
<g clip-path="url(#clip0_2073_954)">
<path d="M7.14001 0.333328V4.50666C7.14334 4.97793 7.0073 5.44078 6.7471 5.84344C6.48691 6.24609 6.11282 6.57268 5.66667 6.78666C5.29081 6.96433 4.87603 7.05686 4.45542 7.05686C4.03482 7.05686 3.62003 6.96433 3.24417 6.78666C2.78744 6.58013 2.40172 6.25676 2.13114 5.85354C1.86056 5.45033 1.71606 4.98356 1.71417 4.50666V0.333328" stroke="#717171" stroke-width="1.5" stroke-miterlimit="10"/>
<path d="M4.42709 0.333328V15.6667" stroke="#717171" stroke-width="1.5" stroke-miterlimit="10"/>
<path d="M15.2858 4.80666C15.2858 5.14197 15.2156 5.474 15.0793 5.78378C14.943 6.09356 14.7431 6.37504 14.4912 6.61214C14.2393 6.84924 13.9402 7.03732 13.6111 7.16563C13.2819 7.29395 12.9292 7.36 12.5729 7.36C12.2166 7.36 11.8639 7.29395 11.5347 7.16563C11.2056 7.03732 10.9065 6.84924 10.6546 6.61214C10.4027 6.37504 10.2028 6.09356 10.0665 5.78378C9.93016 5.474 9.85999 5.14197 9.85999 4.80666C9.85999 3.39333 11.0712 0.973328 12.5729 0.973328C14.0746 0.973328 15.2858 3.39333 15.2858 4.80666Z" stroke="#717171" stroke-width="1.5" stroke-miterlimit="10"/>
<path d="M12.5729 15.6667V7.36" stroke="#717171" stroke-width="1.5" stroke-miterlimit="10"/>
</g>
<defs>
<clipPath id="clip0_2073_954">
<rect width="17" height="16" fill="white"/>
</clipPath>
</defs>
</svg>
