<?xml version="1.0" encoding="iso-8859-1"?>
<!-- Uploaded to: SVG Repo, www.svgrepo.com, Generator: SVG Repo Mixer Tools -->
<svg fill="#000000" version="1.1" id="Layer_1" xmlns="http://www.w3.org/2000/svg" xmlns:xlink="http://www.w3.org/1999/xlink" 
	 viewBox="0 0 512 512" xml:space="preserve">
<g>
	<g>
		<path d="M351.967,115.421c0-29.832-8.474-58.079-23.861-79.538C311.514,12.743,288.919,0,264.484,0
			c-24.437,0-47.032,12.743-63.623,35.883c-15.387,21.459-23.861,49.706-23.861,79.538c0,42.221,17.136,80.457,44.379,100.628
			L217.305,512h94.356l-4.074-295.951C334.831,195.878,351.967,157.643,351.967,115.421z M282.628,192.51l-8.693,4.853
			l3.871,281.246h-26.647l3.871-281.247l-8.693-4.853c-21.501-12.004-35.947-42.982-35.947-77.088
			c0-44.464,24.771-82.029,54.093-82.029s54.093,37.565,54.093,82.03C318.575,149.526,304.129,180.506,282.628,192.51z"/>
	</g>
</g>
<g>
	<g>
		<path d="M122.162,28.141v149.557h0.001c0,7.383-5.217,13.923-12.404,15.551l-13.194,2.987l3.888,282.371H73.805l3.888-282.372
			l-13.194-2.987c-7.187-1.627-12.404-8.168-12.404-15.551V28.141H18.704v149.557c0,18.375,9.903,34.605,25.255,43.11L39.95,512
			h94.357l-4.009-291.191c15.352-8.506,25.255-24.735,25.255-43.11V28.141H122.162z"/>
	</g>
</g>
<g>
	<g>
		<rect x="70.433" y="28.141" width="33.391" height="141.056"/>
	</g>
</g>
<g>
	<g>
		<path d="M493.296,512l-5.355-498.316l-14.224-1.993c-9.625-1.349-26.528,2.012-42.518,15.918
			c-39.002,33.919-58.779,113.287-58.779,235.901v7.826l29.542,24.592L398.99,512H493.296z M451.267,54.491
			c1.269-1.215,2.501-2.278,3.686-3.208l4.591,427.325h-26.7l2.728-198.153l-29.731-24.747
			C406.853,117.783,434.602,70.462,451.267,54.491z"/>
	</g>
</g>
</svg>