<svg width="12" height="12" viewBox="0 0 12 12" fill="none" xmlns="http://www.w3.org/2000/svg">
<path d="M6 10.5C5.36845 9.9613 4.7831 9.37075 4.25 8.7345C3.45 7.779 2.5 6.356 2.5 5C2.49929 3.58377 3.35213 2.30669 4.66054 1.7647C5.96895 1.2227 7.47505 1.52262 8.476 2.5245C9.13425 3.1798 9.50295 4.07119 9.5 5C9.5 6.356 8.55 7.779 7.75 8.7345C7.2169 9.37075 6.63155 9.9613 6 10.5ZM6 3.5C5.4641 3.5 4.96891 3.7859 4.70097 4.25C4.43302 4.7141 4.43302 5.2859 4.70097 5.75C4.96891 6.2141 5.4641 6.5 6 6.5C6.82845 6.5 7.5 5.8284 7.5 5C7.5 4.17157 6.82845 3.5 6 3.5Z" fill="black"/>
</svg>
