<svg width="66" height="37" viewBox="0 0 66 37" fill="none" xmlns="http://www.w3.org/2000/svg">
<rect width="66" height="36.0616" rx="3" fill="url(#paint0_linear_12_865)"/>
<path d="M5 7.13737H9.08391L10.3923 3L11.7322 7.13737H15.8491L12.5945 9.82882L13.7757 13.9016L10.4253 11.4453L7.10635 13.9016L8.44619 9.69466L5 7.13737Z" fill="#CE9730"/>
<path d="M16.2881 7.13737H20.372L21.6804 3L23.0203 7.13737H27.1371L23.881 9.82882L25.0622 13.9016L21.7118 11.4453L18.3929 13.9016L19.7343 9.69466L16.2881 7.13737Z" fill="#CE9730"/>
<path d="M27.5752 7.13737H31.6591L32.9675 3L34.3074 7.13737H38.4243L35.1697 9.82882L36.3509 13.9016L32.9989 11.4453L29.6815 13.9016L31.0214 9.69466L27.5752 7.13737Z" fill="#CE9730"/>
<path d="M38.8633 7.13737H42.9472L44.2556 3L45.5954 7.13737H49.7123L46.4578 9.82882L47.639 13.9016L44.287 11.4453L40.9696 13.9016L42.3095 9.69466L38.8633 7.13737Z" fill="#CE9730"/>
<path d="M50.1514 7.13737H54.2353L55.5437 3L56.8835 7.13737H61.0004L57.7459 9.82882L58.9271 13.9016L55.5767 11.4453L52.2577 13.9016L53.5976 9.69466L50.1514 7.13737Z" fill="#CE9730"/>
<path d="M5 16.9814H8.82373V29.1509H18V32.9814H5V16.9814Z" fill="#CE9730"/>
<path d="M24.0764 16.9814H20.3647V16.9963L20.333 27.2518C20.333 27.2518 20.333 32.971 27.1314 32.9694C27.1314 32.9694 34.333 33.5239 34.333 27.1152V16.9814H30.5579V26.6167C30.5579 26.6167 30.7639 29.4582 27.3339 29.7001C27.3339 29.7001 24.4057 29.5948 24.1715 26.7532L24.1786 16.9831" fill="#CE9730"/>
<path d="M36.667 16.9814H40.1348L42.6277 22.5265L45.2408 16.9814H48.667L44.6392 24.4418L48.667 32.9814H45.1791L42.6277 26.7963L40.0931 32.9814H36.667L40.7256 24.371L36.667 16.9814Z" fill="#CE9730"/>
<path d="M51 16.9814H61V20.6753H53.9426L53.944 23.1263H60V26.8185H53.9309V29.286H61V32.9814H51V16.9814Z" fill="#CE9730"/>
<defs>
<linearGradient id="paint0_linear_12_865" x1="58.2834" y1="54.0021" x2="0.801132" y2="1.71461" gradientUnits="userSpaceOnUse">
<stop stop-color="#FDE470"/>
<stop offset="0.517642" stop-color="#FDE470"/>
<stop offset="0.518316" stop-color="#FCF5C2"/>
<stop offset="0.581156" stop-color="#FCF5C2"/>
<stop offset="0.582899" stop-color="#FDE470"/>
<stop offset="0.593666" stop-color="#FDE470"/>
<stop offset="0.642224" stop-color="#FDE470"/>
<stop offset="0.643369" stop-color="#FCF5C2"/>
<stop offset="0.711035" stop-color="#FCF5C2"/>
<stop offset="0.711035" stop-color="#FDE470"/>
<stop offset="1" stop-color="#FDE470"/>
</linearGradient>
</defs>
</svg>
