<svg width="12" height="12" viewBox="0 0 12 12" fill="none" xmlns="http://www.w3.org/2000/svg">
<path d="M8.5 1H3.5C2.12 1 1 2.115 1 3.49V6.48V6.98C1 8.355 2.12 9.47 3.5 9.47H4.25C4.385 9.47 4.565 9.56 4.65 9.67L5.4 10.665C5.73 11.105 6.27 11.105 6.6 10.665L7.35 9.67C7.445 9.545 7.595 9.47 7.75 9.47H8.5C9.88 9.47 11 8.355 11 6.98V3.49C11 2.115 9.88 1 8.5 1ZM4 6C3.72 6 3.5 5.775 3.5 5.5C3.5 5.225 3.725 5 4 5C4.275 5 4.5 5.225 4.5 5.5C4.5 5.775 4.28 6 4 6ZM6 6C5.72 6 5.5 5.775 5.5 5.5C5.5 5.225 5.725 5 6 5C6.275 5 6.5 5.225 6.5 5.5C6.5 5.775 6.28 6 6 6ZM8 6C7.72 6 7.5 5.775 7.5 5.5C7.5 5.225 7.725 5 8 5C8.275 5 8.5 5.225 8.5 5.5C8.5 5.775 8.28 6 8 6Z" fill="#0A0A0A"/>
</svg>
