<svg width="26" height="26" viewBox="0 0 26 26" fill="none" xmlns="http://www.w3.org/2000/svg">
<path d="M15.1667 5.41667C15.1667 6.61328 14.1966 7.58333 13 7.58333C11.8033 7.58333 10.8333 6.61328 10.8333 5.41667C10.8333 4.22005 11.8033 3.25 13 3.25C14.1966 3.25 15.1667 4.22005 15.1667 5.41667Z" fill="#E9E9E9"/>
<path fill-rule="evenodd" clip-rule="evenodd" d="M17.3333 17.3333V11.9167C17.3333 9.52342 15.3932 7.58332 13 7.58332C10.6068 7.58332 8.66667 9.52342 8.66667 11.9167V17.3333H17.3333ZM13 5.41666C9.41015 5.41666 6.5 8.3268 6.5 11.9167V19.5H19.5V11.9167C19.5 8.3268 16.5898 5.41666 13 5.41666Z" fill="#E9E9E9"/>
<path d="M4.33333 18.4167C4.33333 17.8184 4.81836 17.3333 5.41666 17.3333H20.5833C21.1817 17.3333 21.6667 17.8184 21.6667 18.4167C21.6667 19.015 21.1817 19.5 20.5833 19.5H5.41666C4.81836 19.5 4.33333 19.015 4.33333 18.4167Z" fill="#E9E9E9"/>
<path d="M10.8333 20.5833C10.8333 21.78 11.8033 22.75 13 22.75C14.1966 22.75 15.1667 21.78 15.1667 20.5833H10.8333Z" fill="#E9E9E9"/>
</svg>
