<svg width="21" height="21" viewBox="0 0 21 21" fill="none" xmlns="http://www.w3.org/2000/svg">
<g clip-path="url(#clip0_2087_39)">
<path d="M2.10001 3.5V2.8C1.76633 2.8 1.47904 3.03552 1.4136 3.36272L2.10001 3.5ZM18.9 3.5L19.5864 3.36272C19.5209 3.03552 19.2336 2.8 18.9 2.8V3.5ZM20.3 10.5V11.2C20.5097 11.2 20.7084 11.106 20.8414 10.9438C20.9742 10.7816 21.0276 10.5684 20.9864 10.3627L20.3 10.5ZM0.700006 10.5L0.0135996 10.3627C-0.027529 10.5684 0.0257095 10.7816 0.158667 10.9438C0.291623 11.106 0.49029 11.2 0.700006 11.2V10.5ZM4.90001 14.7H4.20001V15.4H4.90001V14.7ZM16.1 14.7V15.4H16.8V14.7H16.1ZM6.03863e-06 21H21V19.6H6.03863e-06V21ZM1.40001 10.5V20.3H2.80001V10.5H1.40001ZM18.2 10.5V20.3H19.6V10.5H18.2ZM2.10001 4.2H18.9V2.8H2.10001V4.2ZM18.2136 3.63728L19.6136 10.6373L20.9864 10.3627L19.5864 3.36272L18.2136 3.63728ZM20.3 9.8H0.700006V11.2H20.3V9.8ZM1.38641 10.6373L2.78641 3.63728L1.4136 3.36272L0.0135996 10.3627L1.38641 10.6373ZM1.40001 1.4H19.6V0H1.40001V1.4ZM4.20001 10.5V14.7H5.60001V10.5H4.20001ZM4.90001 15.4H16.1V14H4.90001V15.4ZM16.8 14.7V10.5H15.4V14.7H16.8Z" fill="#306CA3"/>
</g>
<defs>
<clipPath id="clip0_2087_39">
<rect width="21" height="21" fill="white"/>
</clipPath>
</defs>
</svg>
