<svg width="16" height="16" viewBox="0 0 16 16" fill="none" xmlns="http://www.w3.org/2000/svg">
<path fill-rule="evenodd" clip-rule="evenodd" d="M10.5 3C10.5 1.89543 11.3954 1 12.5 1C13.6046 1 14.5 1.89543 14.5 3C14.5 4.10457 13.6046 5 12.5 5C11.9289 5 11.4141 4.76049 11.0501 4.37749L5.43595 7.49647C5.47777 7.65753 5.5 7.82633 5.5 8C5.5 8.17367 5.47777 8.34247 5.43595 8.50353L11.0501 11.6225C11.4141 11.2395 11.9289 11 12.5 11C13.6046 11 14.5 11.8954 14.5 13C14.5 14.1046 13.6046 15 12.5 15C11.3954 15 10.5 14.1046 10.5 13C10.5 12.8263 10.5222 12.6575 10.5641 12.4965L4.94992 9.37747C4.5859 9.76047 4.07111 10 3.5 10C2.39543 10 1.5 9.1046 1.5 8C1.5 6.8954 2.39543 6 3.5 6C4.07111 6 4.5859 6.23951 4.94992 6.62251L10.5641 3.50355C10.5222 3.34245 10.5 3.17363 10.5 3Z" fill="#252525"/>
</svg>
