<?xml version="1.0" encoding="iso-8859-1"?>
<!-- Uploaded to: SVG Repo, www.svgrepo.com, Generator: SVG Repo Mixer Tools -->
<svg fill="#000000" height="800px" width="800px" version="1.1" id="Layer_1" xmlns="http://www.w3.org/2000/svg" xmlns:xlink="http://www.w3.org/1999/xlink" 
	 viewBox="0 0 512 512" xml:space="preserve">
<g>
	<g>
		<path d="M489.739,0H272.696v411.826h233.739V16.696C506.435,7.473,498.962,0,489.739,0z M339.478,228.174
			c0,9.223-7.473,16.696-16.696,16.696c-9.223,0-16.696-7.473-16.696-16.696v-55.652c0-9.223,7.473-16.696,16.696-16.696
			c9.223,0,16.696,7.473,16.696,16.696V228.174z"/>
	</g>
</g>
<g>
	<g>
		<path d="M5.565,445.217v50.087c0,9.223,7.473,16.696,16.696,16.696h467.478c9.223,0,16.696-7.473,16.696-16.696v-50.087H5.565z"/>
	</g>
</g>
<g>
	<g>
		<path d="M22.261,0C13.038,0,5.565,7.473,5.565,16.696v395.13h233.739V0H22.261z M205.913,228.174
			c0,9.223-7.473,16.696-16.696,16.696s-16.696-7.473-16.696-16.696v-55.652c0-9.223,7.473-16.696,16.696-16.696
			s16.696,7.473,16.696,16.696V228.174z"/>
	</g>
</g>
</svg>