<svg width="20" height="20" viewBox="0 0 20 20" fill="none" xmlns="http://www.w3.org/2000/svg">
<path d="M9.99999 1.25H2.02499V17.9917H9.99999V1.25Z" stroke="#717171" stroke-width="1.91" stroke-miterlimit="10"/>
<path d="M17.975 1.25H10V17.9917H17.975V1.25Z" stroke="#717171" stroke-width="1.91" stroke-miterlimit="10"/>
<path d="M3.625 19.5833V17.9917" stroke="#717171" stroke-width="1.91" stroke-miterlimit="10"/>
<path d="M16.375 19.5833V17.9917" stroke="#717171" stroke-width="1.91" stroke-miterlimit="10"/>
<path d="M6.80832 9.22501V10.8167" stroke="#717171" stroke-width="1.91" stroke-miterlimit="10"/>
<path d="M13.9833 15.6C13.9844 15.3903 13.9441 15.1824 13.8646 14.9883C13.7851 14.7943 13.668 14.6178 13.5201 14.4691C13.3722 14.3204 13.1964 14.2025 13.0027 14.1219C12.809 14.0414 12.6014 14 12.3917 14V5.23333C12.601 5.23443 12.8085 5.19402 13.0021 5.11442C13.1957 5.03482 13.3716 4.91762 13.5196 4.7696C13.6676 4.62158 13.7848 4.44568 13.8644 4.25207C13.944 4.05846 13.9844 3.85099 13.9833 3.64166C13.9833 3.85139 14.0248 4.05904 14.1053 4.2527C14.1858 4.44635 14.3038 4.62219 14.4525 4.7701C14.6011 4.91801 14.7776 5.03507 14.9717 5.11457C15.1657 5.19407 15.3736 5.23443 15.5833 5.23333V14C15.159 14 14.752 14.1686 14.452 14.4686C14.1519 14.7687 13.9833 15.1756 13.9833 15.6Z" stroke="#717171" stroke-width="1.91" stroke-miterlimit="10"/>
</svg>
