<svg width="21" height="22" viewBox="0 0 21 22" fill="none" xmlns="http://www.w3.org/2000/svg">
<g clip-path="url(#clip0_2073_959)">
<path d="M5.1275 1.83334H15.155C15.8187 1.83334 16.4552 2.10955 16.9245 2.60121C17.3938 3.09287 17.6575 3.7597 17.6575 4.45501V21.0833H2.625V4.45501C2.625 3.7597 2.88866 3.09287 3.35797 2.60121C3.82727 2.10955 4.4638 1.83334 5.1275 1.83334Z" stroke="#717171" stroke-width="1.91" stroke-miterlimit="10"/>
<path d="M10.1413 17.5817C12.4464 17.5817 14.3151 15.624 14.3151 13.2092C14.3151 10.7943 12.4464 8.83667 10.1413 8.83667C7.83621 8.83667 5.96756 10.7943 5.96756 13.2092C5.96756 15.624 7.83621 17.5817 10.1413 17.5817Z" stroke="#717171" stroke-width="1.91" stroke-miterlimit="10"/>
<path d="M5.12759 5.33502H9.31009" stroke="#717171" stroke-width="1.91" stroke-miterlimit="10"/>
<path d="M13.4838 5.33502H15.155" stroke="#717171" stroke-width="1.91" stroke-miterlimit="10"/>
<path d="M10.9725 5.33502H12.6438" stroke="#717171" stroke-width="1.91" stroke-miterlimit="10"/>
<path d="M5.96756 13.2092C10.1413 10.5875 10.9726 14.96 14.3151 13.2092" stroke="#717171" stroke-width="1.91" stroke-miterlimit="10"/>
</g>
<defs>
<clipPath id="clip0_2073_959">
<rect width="21" height="22" fill="white"/>
</clipPath>
</defs>
</svg>
