<svg width="20" height="15" viewBox="0 0 20 15" fill="none" xmlns="http://www.w3.org/2000/svg">
<path d="M10.0172 15C8.58068 15 7.48218 13.9167 7.48218 12.5C7.48218 11.0833 8.58068 10 10.0172 10C11.4537 10 12.5522 11.0833 12.5522 12.5C12.5522 13.9167 11.4537 15 10.0172 15ZM10.0172 11.6667C9.51019 11.6667 9.17219 12 9.17219 12.5C9.17219 13 9.51019 13.3334 10.0172 13.3334C10.5242 13.3334 10.8622 13 10.8622 12.5C10.8622 12 10.5242 11.6667 10.0172 11.6667Z" fill="#717171"/>
<path d="M13.9044 10.1667C13.6509 10.1667 13.3974 10.0834 13.2284 9.83337C12.3834 8.83336 11.2003 8.33335 9.93283 8.33335C8.66533 8.33335 7.48232 8.91669 6.63731 9.83337C6.29931 10.1667 5.79231 10.25 5.45431 9.9167C5.1163 9.58336 5.0318 9.08336 5.3698 8.75002C6.55281 7.41668 8.24282 6.66667 10.0173 6.66667C11.7918 6.66667 13.4819 7.41668 14.5804 8.83336C14.8339 9.1667 14.8339 9.75003 14.4959 10C14.3269 10.0834 14.1579 10.1667 13.9044 10.1667Z" fill="#717171"/>
<path d="M16.5237 8.08302C16.2702 8.08302 16.0167 7.99969 15.8477 7.74968C14.4957 5.99967 12.2987 4.99966 10.0172 4.99966C7.73565 4.99966 5.53864 5.99967 4.10213 7.74968C3.84862 8.08302 3.25712 8.16635 2.91912 7.83302C2.58112 7.49968 2.49662 6.99968 2.83462 6.66634C4.60913 4.58299 7.22865 3.33298 10.0172 3.33298C12.8057 3.33298 15.4252 4.58299 17.1997 6.66634C17.4532 6.99968 17.4532 7.58301 17.1152 7.83302C16.9462 7.99969 16.7772 8.08302 16.5237 8.08302Z" fill="#717171"/>
<path d="M19.1433 5.91672C18.8898 5.91672 18.6363 5.83339 18.4673 5.58338C16.4393 3.08336 13.3128 1.66668 10.0172 1.66668C6.72171 1.66668 3.59519 3.08336 1.48268 5.66672C1.22918 6.00006 0.637675 6.08339 0.299673 5.75005C-0.0383297 5.50005 -0.12283 4.91671 0.215172 4.58338C2.58119 1.66668 6.21471 0 10.0172 0C13.8198 0 17.4533 1.66668 19.8193 4.58338C20.0728 4.91671 20.0728 5.50005 19.7348 5.75005C19.5658 5.91672 19.3968 5.91672 19.1433 5.91672Z" fill="#717171"/>
</svg>
